<?xml version="1.0" encoding="UTF-8" standalone="no"?>
<!-- Created with Inkscape (http://www.inkscape.org/) -->

<svg
   xmlns:dc="http://purl.org/dc/elements/1.1/"
   xmlns:cc="http://creativecommons.org/ns#"
   xmlns:rdf="http://www.w3.org/1999/02/22-rdf-syntax-ns#"
   xmlns:svg="http://www.w3.org/2000/svg"
   xmlns="http://www.w3.org/2000/svg"
   xmlns:sodipodi="http://sodipodi.sourceforge.net/DTD/sodipodi-0.dtd"
   xmlns:inkscape="http://www.inkscape.org/namespaces/inkscape"
   width="65.742599mm"
   height="55.964531mm"
   viewBox="0 0 232.94622 198.29952"
   id="svg2"
   version="1.1"
   inkscape:version="0.91 r13725"
   sodipodi:docname="VRcomplex3.svg">
  <defs
     id="defs4">
    <marker
       inkscape:stockid="Arrow1Mend"
       orient="auto"
       refY="0"
       refX="0"
       id="Arrow1Mend"
       style="overflow:visible"
       inkscape:isstock="true">
      <path
         id="path4189"
         d="M 0,0 5,-5 -12.5,0 5,5 0,0 Z"
         style="fill:#000000;fill-opacity:1;fill-rule:evenodd;stroke:#000000;stroke-width:1pt;stroke-opacity:1"
         transform="matrix(-0.4,0,0,-0.4,-4,0)"
         inkscape:connector-curvature="0" />
    </marker>
    <marker
       inkscape:stockid="Arrow1Lstart"
       orient="auto"
       refY="0"
       refX="0"
       id="Arrow1Lstart"
       style="overflow:visible"
       inkscape:isstock="true">
      <path
         id="path4180"
         d="M 0,0 5,-5 -12.5,0 5,5 0,0 Z"
         style="fill:#000000;fill-opacity:1;fill-rule:evenodd;stroke:#000000;stroke-width:1pt;stroke-opacity:1"
         transform="matrix(0.8,0,0,0.8,10,0)"
         inkscape:connector-curvature="0" />
    </marker>
    <marker
       inkscape:stockid="Arrow1Lend"
       orient="auto"
       refY="0"
       refX="0"
       id="marker4456"
       style="overflow:visible"
       inkscape:isstock="true">
      <path
         id="path4458"
         d="M 0,0 5,-5 -12.5,0 5,5 0,0 Z"
         style="fill:#000000;fill-opacity:1;fill-rule:evenodd;stroke:#000000;stroke-width:1pt;stroke-opacity:1"
         transform="matrix(-0.8,0,0,-0.8,-10,0)"
         inkscape:connector-curvature="0" />
    </marker>
    <marker
       inkscape:stockid="Arrow1Lend"
       orient="auto"
       refY="0"
       refX="0"
       id="Arrow1Lend"
       style="overflow:visible"
       inkscape:isstock="true">
      <path
         id="path4183"
         d="M 0,0 5,-5 -12.5,0 5,5 0,0 Z"
         style="fill:#000000;fill-opacity:1;fill-rule:evenodd;stroke:#000000;stroke-width:1pt;stroke-opacity:1"
         transform="matrix(-0.8,0,0,-0.8,-10,0)"
         inkscape:connector-curvature="0" />
    </marker>
  </defs>
  <sodipodi:namedview
     id="base"
     pagecolor="#ffffff"
     bordercolor="#666666"
     borderopacity="1.0"
     inkscape:pageopacity="0.0"
     inkscape:pageshadow="2"
     inkscape:zoom="1.979899"
     inkscape:cx="76.945584"
     inkscape:cy="108.41465"
     inkscape:document-units="px"
     inkscape:current-layer="layer1"
     showgrid="false"
     inkscape:window-width="1440"
     inkscape:window-height="775"
     inkscape:window-x="0"
     inkscape:window-y="1"
     inkscape:window-maximized="1"
     fit-margin-top="0"
     fit-margin-left="0"
     fit-margin-right="0"
     fit-margin-bottom="0" />
  <metadata
     id="metadata7">
    <rdf:RDF>
      <cc:Work
         rdf:about="">
        <dc:format>image/svg+xml</dc:format>
        <dc:type
           rdf:resource="http://purl.org/dc/dcmitype/StillImage" />
        <dc:title></dc:title>
      </cc:Work>
    </rdf:RDF>
  </metadata>
  <g
     inkscape:label="Layer 1"
     inkscape:groupmode="layer"
     id="layer1"
     transform="translate(-259.61938,-341.90517)">
    <path
       style="fill:none;fill-rule:evenodd;stroke:#000000;stroke-width:1px;stroke-linecap:butt;stroke-linejoin:miter;stroke-opacity:1"
       d="m 269.71073,440.20976 211.12188,0"
       id="path4720"
       inkscape:connector-curvature="0" />
    <path
       style="fill:none;fill-rule:evenodd;stroke:#000000;stroke-width:1px;stroke-linecap:butt;stroke-linejoin:miter;stroke-opacity:1"
       d="m 375.77675,354.3468 0,164.65486"
       id="path4722"
       inkscape:connector-curvature="0" />
    <circle
       style="fill:#0000ff;fill-opacity:1;stroke-width:3;stroke-miterlimit:4;stroke-dasharray:none"
       id="path4724"
       cx="309.10666"
       cy="476.57526"
       r="4.0406103" />
    <circle
       r="4.0406103"
       cy="429.09808"
       cx="301.02545"
       id="circle4726"
       style="fill:#0000ff;fill-opacity:1;stroke-width:3;stroke-miterlimit:4;stroke-dasharray:none" />
    <circle
       style="fill:#0000ff;fill-opacity:1;stroke-width:3;stroke-miterlimit:4;stroke-dasharray:none"
       id="circle4728"
       cx="351.53308"
       cy="385.66153"
       r="4.0406103" />
    <circle
       r="4.0406103"
       cy="381.62094"
       cx="383.85794"
       id="circle4730"
       style="fill:#0000ff;fill-opacity:1;stroke-width:3;stroke-miterlimit:4;stroke-dasharray:none" />
    <circle
       style="fill:#0000ff;fill-opacity:1;stroke-width:3;stroke-miterlimit:4;stroke-dasharray:none"
       id="circle4732"
       cx="336.38077"
       cy="383.6412"
       r="4.0406103" />
    <circle
       r="4.0406103"
       cy="394.75293"
       cx="314.15744"
       id="circle4734"
       style="fill:#0000ff;fill-opacity:1;stroke-width:3;stroke-miterlimit:4;stroke-dasharray:none" />
    <circle
       style="fill:#0000ff;fill-opacity:1;stroke-width:3;stroke-miterlimit:4;stroke-dasharray:none"
       id="circle4736"
       cx="324.25894"
       cy="380.61078"
       r="4.0406103" />
    <circle
       r="4.0406103"
       cy="467.48389"
       cx="455.5788"
       id="circle4738"
       style="fill:#0000ff;fill-opacity:1;stroke-width:3;stroke-miterlimit:4;stroke-dasharray:none" />
    <circle
       style="fill:#0000ff;fill-opacity:1;stroke-width:3;stroke-miterlimit:4;stroke-dasharray:none"
       id="circle4744"
       cx="441.43665"
       cy="370.50925"
       r="4.0406103" />
    <circle
       r="4.0406103"
       cy="404.8544"
       cx="455.57877"
       id="circle4746"
       style="fill:#0000ff;fill-opacity:1;stroke-width:3;stroke-miterlimit:4;stroke-dasharray:none" />
    <circle
       r="4.0406103"
       cy="494.758"
       cx="400.02042"
       id="circle4748"
       style="fill:#0000ff;fill-opacity:1;stroke-width:3;stroke-miterlimit:4;stroke-dasharray:none" />
    <circle
       r="4.0406103"
       cy="383.6412"
       cx="405.07114"
       id="circle4752"
       style="fill:#0000ff;fill-opacity:1;stroke-width:3;stroke-miterlimit:4;stroke-dasharray:none" />
    <circle
       style="fill:#0000ff;fill-opacity:1;stroke-width:3;stroke-miterlimit:4;stroke-dasharray:none"
       id="circle4754"
       cx="435.37573"
       cy="483.64633"
       r="4.0406103" />
    <circle
       r="4.0406103"
       cy="389.70215"
       cx="431.33511"
       id="circle4756"
       style="fill:#0000ff;fill-opacity:1;stroke-width:3;stroke-miterlimit:4;stroke-dasharray:none" />
    <circle
       r="4.0406103"
       cy="495.76813"
       cx="349.51276"
       id="circle4758"
       style="fill:#0000ff;fill-opacity:1;stroke-width:3;stroke-miterlimit:4;stroke-dasharray:none" />
    <circle
       style="fill:#0000ff;fill-opacity:1;stroke-width:3;stroke-miterlimit:4;stroke-dasharray:none"
       id="circle4764"
       cx="458.60925"
       cy="422.02698"
       r="4.0406103" />
    <text
       xml:space="preserve"
       style="font-style:normal;font-weight:normal;font-size:18.71145248px;line-height:125%;font-family:sans-serif;letter-spacing:0px;word-spacing:0px;fill:#000000;fill-opacity:1;stroke:none;stroke-width:1px;stroke-linecap:butt;stroke-linejoin:miter;stroke-opacity:1"
       x="567.16876"
       y="379.71991"
       id="text4768"
       sodipodi:linespacing="125%"
       transform="scale(0.85273548,1.1726966)"><tspan
         sodipodi:role="line"
         id="tspan4770"
         x="567.16876"
         y="379.71991">x</tspan></text>
    <text
       xml:space="preserve"
       style="font-style:normal;font-weight:normal;font-size:15.89650726px;line-height:125%;font-family:sans-serif;letter-spacing:0px;word-spacing:0px;fill:#000000;fill-opacity:1;stroke:none;stroke-width:1px;stroke-linecap:butt;stroke-linejoin:miter;stroke-opacity:1"
       x="372.41333"
       y="350.59857"
       id="text4772"
       sodipodi:linespacing="125%"><tspan
         sodipodi:role="line"
         id="tspan4774"
         x="372.41333"
         y="350.59857">y</tspan></text>
    <path
       style="fill:none;fill-rule:evenodd;stroke:#000000;stroke-width:1px;stroke-linecap:butt;stroke-linejoin:miter;stroke-opacity:1"
       d="m 316.50595,391.46501 5.40448,-7.56631"
       id="path4990"
       inkscape:connector-type="polyline"
       inkscape:connector-curvature="0"
       inkscape:connection-start="#circle4734"
       inkscape:connection-end="#circle4736" />
    <path
       style="fill:none;fill-rule:evenodd;stroke:#000000;stroke-width:1px;stroke-linecap:butt;stroke-linejoin:miter;stroke-opacity:1"
       d="m 317.77142,392.94593 14.99537,-7.49772"
       id="path4992"
       inkscape:connector-type="polyline"
       inkscape:connector-curvature="0"
       inkscape:connection-start="#circle4734"
       inkscape:connection-end="#circle4732" />
    <path
       style="fill:none;fill-rule:evenodd;stroke:#000000;stroke-width:1px;stroke-linecap:butt;stroke-linejoin:miter;stroke-opacity:1"
       d="m 318.0835,393.79794 29.52352,-7.18142"
       id="path4994"
       inkscape:connector-type="polyline"
       inkscape:connector-curvature="0"
       inkscape:connection-start="#circle4734"
       inkscape:connection-end="#circle4728" />
    <path
       style="fill:none;fill-rule:evenodd;stroke:#000000;stroke-width:1px;stroke-linecap:butt;stroke-linejoin:miter;stroke-opacity:1"
       d="M 312.7144,398.52702 302.46849,425.324"
       id="path4996"
       inkscape:connector-type="polyline"
       inkscape:connector-curvature="0"
       inkscape:connection-start="#circle4734"
       inkscape:connection-end="#circle4726" />
    <path
       style="display:inline;fill:none;fill-rule:evenodd;stroke:#000000;stroke-width:1px;stroke-linecap:butt;stroke-linejoin:miter;stroke-opacity:1"
       d="m 308.42866,472.59199 -6.72521,-39.51065"
       id="path4998"
       inkscape:connector-type="polyline"
       inkscape:connector-curvature="0"
       inkscape:connection-end="#circle4726"
       inkscape:connection-start="#path4724" />
    <path
       style="fill:none;fill-rule:evenodd;stroke:#000000;stroke-width:1px;stroke-linecap:butt;stroke-linejoin:miter;stroke-opacity:1"
       d="m 312.75642,478.30889 33.10658,15.7256"
       id="path5000"
       inkscape:connector-type="polyline"
       inkscape:connector-curvature="0"
       inkscape:connection-start="#path4724"
       inkscape:connection-end="#circle4758" />
    <path
       style="fill:none;fill-rule:evenodd;stroke:#000000;stroke-width:1px;stroke-linecap:butt;stroke-linejoin:miter;stroke-opacity:1"
       d="m 353.55249,495.68733 42.42819,-0.84854"
       id="path5002"
       inkscape:connector-type="polyline"
       inkscape:connector-curvature="0"
       inkscape:connection-start="#circle4758"
       inkscape:connection-end="#circle4748" />
    <path
       style="fill:none;fill-rule:evenodd;stroke:#000000;stroke-width:1px;stroke-linecap:butt;stroke-linejoin:miter;stroke-opacity:1"
       d="m 403.87509,493.54653 27.64597,-8.68873"
       id="path5004"
       inkscape:connector-type="polyline"
       inkscape:connector-curvature="0"
       inkscape:connection-start="#circle4748"
       inkscape:connection-end="#circle4754" />
    <path
       style="fill:none;fill-rule:evenodd;stroke:#000000;stroke-width:1px;stroke-linecap:butt;stroke-linejoin:miter;stroke-opacity:1"
       d="m 438.53092,481.12219 13.89269,-11.11416"
       id="path5006"
       inkscape:connector-type="polyline"
       inkscape:connector-curvature="0"
       inkscape:connection-start="#circle4754"
       inkscape:connection-end="#circle4738" />
    <path
       style="fill:none;fill-rule:evenodd;stroke:#000000;stroke-width:1px;stroke-linecap:butt;stroke-linejoin:miter;stroke-opacity:1"
       d="m 455.84757,463.4523 2.49291,-37.39374"
       id="path5008"
       inkscape:connector-type="polyline"
       inkscape:connector-curvature="0"
       inkscape:connection-start="#circle4738"
       inkscape:connection-end="#circle4764" />
    <path
       style="fill:none;fill-rule:evenodd;stroke:#000000;stroke-width:1px;stroke-linecap:butt;stroke-linejoin:miter;stroke-opacity:1"
       d="m 457.70308,418.08937 -3.62933,-15.77051"
       id="path5010"
       inkscape:connector-type="polyline"
       inkscape:connector-curvature="0"
       inkscape:connection-start="#circle4764" />
    <path
       style="fill:none;fill-rule:evenodd;stroke:#000000;stroke-width:1px;stroke-linecap:butt;stroke-linejoin:miter;stroke-opacity:1"
       d="M 454.04032,401.11818 442.97509,374.24547"
       id="path5012"
       inkscape:connector-type="polyline"
       inkscape:connector-curvature="0"
       inkscape:connection-start="#circle4746"
       inkscape:connection-end="#circle4744" />
    <path
       style="fill:none;fill-rule:evenodd;stroke:#000000;stroke-width:1px;stroke-linecap:butt;stroke-linejoin:miter;stroke-opacity:1"
       d="m 452.1524,402.71292 -17.39092,-10.8693"
       id="path5014"
       inkscape:connector-type="polyline"
       inkscape:connector-curvature="0"
       inkscape:connection-start="#circle4746"
       inkscape:connection-end="#circle4756" />
    <path
       style="fill:none;fill-rule:evenodd;stroke:#000000;stroke-width:1px;stroke-linecap:butt;stroke-linejoin:miter;stroke-opacity:1"
       d="m 433.21698,386.12661 6.3378,-12.04182"
       id="path5016"
       inkscape:connector-type="polyline"
       inkscape:connector-curvature="0"
       inkscape:connection-start="#circle4756"
       inkscape:connection-end="#circle4744" />
    <path
       style="fill:none;fill-rule:evenodd;stroke:#000000;stroke-width:1px;stroke-linecap:butt;stroke-linejoin:miter;stroke-opacity:1"
       d="M 433.94077,392.79033 456.0036,418.9388"
       id="path5018"
       inkscape:connector-type="polyline"
       inkscape:connector-curvature="0"
       inkscape:connection-start="#circle4756"
       inkscape:connection-end="#circle4764" />
    <path
       style="fill:none;fill-rule:evenodd;stroke:#000000;stroke-width:1px;stroke-linecap:butt;stroke-linejoin:miter;stroke-opacity:1"
       d="m 428.81993,388.17673 -19.77998,-3.77757"
       id="path5020"
       inkscape:connector-type="polyline"
       inkscape:connector-curvature="0"
       inkscape:connection-end="#circle4752" />
    <path
       style="fill:none;fill-rule:evenodd;stroke:#000000;stroke-width:1px;stroke-linecap:butt;stroke-linejoin:miter;stroke-opacity:1"
       d="m 401.04879,383.25813 -13.1685,-1.25412"
       id="path5022"
       inkscape:connector-type="polyline"
       inkscape:connector-curvature="0"
       inkscape:connection-start="#circle4752"
       inkscape:connection-end="#circle4730" />
    <path
       style="fill:none;fill-rule:evenodd;stroke:#000000;stroke-width:1px;stroke-linecap:butt;stroke-linejoin:miter;stroke-opacity:1"
       d="m 379.84857,382.12211 -24.30612,3.03825"
       id="path5024"
       inkscape:connector-type="polyline"
       inkscape:connector-curvature="0"
       inkscape:connection-start="#circle4730"
       inkscape:connection-end="#circle4728" />
    <path
       style="fill:none;fill-rule:evenodd;stroke:#000000;stroke-width:1px;stroke-linecap:butt;stroke-linejoin:miter;stroke-opacity:1"
       d="m 347.52796,385.12751 -7.14208,-0.95229"
       id="path5026"
       inkscape:connector-type="polyline"
       inkscape:connector-curvature="0"
       inkscape:connection-start="#circle4728"
       inkscape:connection-end="#circle4732" />
    <path
       style="fill:none;fill-rule:evenodd;stroke:#000000;stroke-width:1px;stroke-linecap:butt;stroke-linejoin:miter;stroke-opacity:1"
       d="m 332.46081,382.66122 -4.28191,-1.07046"
       id="path5028"
       inkscape:connector-type="polyline"
       inkscape:connector-curvature="0"
       inkscape:connection-start="#circle4732"
       inkscape:connection-end="#circle4736" />
    <path
       style="fill:none;fill-rule:evenodd;stroke:#000000;stroke-width:1px;stroke-linecap:butt;stroke-linejoin:miter;stroke-opacity:1"
       d="M 408.8715,382.26886 437.63628,371.8816"
       id="path5030"
       inkscape:connector-type="polyline"
       inkscape:connector-curvature="0"
       inkscape:connection-start="#circle4752"
       inkscape:connection-end="#circle4744" />
    <text
       xml:space="preserve"
       style="font-style:normal;font-weight:normal;font-size:15px;line-height:125%;font-family:sans-serif;letter-spacing:0px;word-spacing:0px;fill:#000000;fill-opacity:1;stroke:none;stroke-width:1px;stroke-linecap:butt;stroke-linejoin:miter;stroke-opacity:1"
       x="299.52042"
       y="533.63867"
       id="text5032"
       sodipodi:linespacing="125%"><tspan
         sodipodi:role="line"
         id="tspan5034"
         x="299.52042"
         y="533.63867">VR Simplicial Complex </tspan></text>
    <path
       style="fill:#ffd42a;fill-opacity:1;stroke:#000000;stroke-width:0.08928572;stroke-miterlimit:4;stroke-dasharray:none;stroke-dashoffset:0;stroke-opacity:1"
       d="m 59.317982,51.097765 c 0,-0.04463 13.965565,-7.058807 14.054432,-7.058807 0.02018,0 0.141829,0.131204 0.270334,0.291565 0.456217,0.56931 1.254656,1.086784 2.036841,1.320089 0.451903,0.134791 1.354163,0.166127 1.856312,0.06447 0.466031,-0.09434 0.932915,-0.273055 1.330606,-0.509318 0.378392,-0.224799 0.928555,-0.733818 1.191693,-1.102572 0.215102,-0.301438 0.538101,-0.9536 0.582674,-1.176466 0.01516,-0.07577 0.04011,-0.137797 0.05546,-0.137831 0.04795,-1.06e-4 7.125845,0.945846 7.131022,0.953054 0.0027,0.0038 0.01636,0.108467 0.03037,0.23269 l 0.02547,0.22586 -14.204478,3.454053 c -7.812463,1.899729 -14.239634,3.462823 -14.282602,3.473543 -0.04297,0.01072 -0.07813,-0.0029 -0.07813,-0.03033 z"
       id="path5083"
       inkscape:connector-curvature="0"
       transform="translate(259.61938,341.90517)" />
    <path
       style="fill:#ffd42a;fill-opacity:1;stroke:#000000;stroke-width:0.00398597;stroke-miterlimit:4;stroke-dasharray:none;stroke-dashoffset:0;stroke-opacity:1"
       d="m 57.614417,50.204916 -0.297314,-0.351664 2.656637,-3.721879 c 1.461151,-2.047033 2.682206,-3.748715 2.713456,-3.781515 0.04725,-0.0496 0.08596,-0.04483 0.229962,0.02833 0.09523,0.04838 0.343904,0.1431 0.552609,0.210484 0.508645,0.164224 1.40071,0.205401 1.968286,0.09086 1.219829,-0.246182 2.223433,-1.003358 2.80076,-2.113054 0.104957,-0.201741 0.204882,-0.366213 0.222053,-0.365494 0.01717,7.2e-4 0.975419,0.237967 2.129437,0.527216 l 2.098214,0.525906 0.0296,0.600017 c 0.01919,0.38903 0.06128,0.709677 0.11969,0.911875 0.04955,0.171522 0.08645,0.312147 0.082,0.3125 -0.0044,3.52e-4 -3.378076,1.68312 -7.496957,3.739481 -4.118881,2.056362 -7.493881,3.738786 -7.5,3.738721 -0.0061,-4.4e-5 -0.144917,-0.158366 -0.30844,-0.351781 z"
       id="path5087"
       inkscape:connector-curvature="0"
       transform="translate(259.61938,341.90517)" />
    <path
       style="fill:#ffd42a;fill-opacity:1;stroke:#000000;stroke-width:0.00398597;stroke-miterlimit:4;stroke-dasharray:none;stroke-dashoffset:0;stroke-opacity:1"
       d="m 158.84923,43.767575 c -5.10714,-0.978728 -9.29798,-1.780109 -9.31297,-1.780847 -0.015,-7.37e-4 -0.0378,-0.227345 -0.0507,-0.503573 -0.0129,-0.276228 -0.0308,-0.529688 -0.0397,-0.563245 -0.0118,-0.04431 3.91826,-1.482757 14.35872,-5.255415 7.90625,-2.856922 14.37817,-5.194979 14.38204,-5.195684 0.004,-7.05e-4 0.11891,0.166832 0.25562,0.372303 0.14112,0.212085 0.41554,0.531627 0.6348,0.739173 0.317,0.300071 0.3792,0.38037 0.34706,0.448066 -0.0215,0.04536 -1.44541,2.755781 -3.16416,6.023153 -2.38771,4.539068 -3.1408,5.934761 -3.19197,5.915606 -0.65507,-0.245236 -1.65288,-0.285399 -2.36919,-0.09536 -0.43735,0.11603 -0.93447,0.340616 -1.29152,0.583479 -0.26954,0.18334 -0.73168,0.628564 -0.92332,0.889533 -0.1074,0.146266 -0.1857,0.210543 -0.25236,0.207186 -0.0532,-0.0027 -4.27522,-0.805645 -9.38236,-1.784373 z"
       id="path5089"
       inkscape:connector-curvature="0"
       transform="translate(259.61938,341.90517)" />
    <path
       style="fill:#ffd42a;fill-opacity:1;stroke:#000000;stroke-width:0.00398597;stroke-miterlimit:4;stroke-dasharray:none;stroke-dashoffset:0;stroke-opacity:1"
       d="m 184.17619,54.964654 c -4.74679,-2.967516 -8.65759,-5.411201 -8.69066,-5.430411 -0.0485,-0.02818 -0.0335,-0.118206 0.0779,-0.465878 0.18648,-0.582157 0.24781,-1.159153 0.1825,-1.717037 -0.0588,-0.502516 -0.25076,-1.117433 -0.47312,-1.515716 -0.22168,-0.397077 -0.64943,-0.913005 -0.95786,-1.155321 l -0.26412,-0.207508 0.21829,-0.406645 c 0.12006,-0.223654 1.53858,-2.917805 3.15227,-5.987001 1.61369,-3.069196 2.94859,-5.596351 2.96644,-5.615899 0.0179,-0.01955 0.1812,0.0069 0.363,0.05885 0.44939,0.128338 1.32291,0.164569 1.78142,0.07389 0.18415,-0.03642 0.34042,-0.0531 0.34727,-0.03706 0.007,0.01603 2.49857,6.065406 5.53717,13.443047 l 5.52473,13.413893 -0.26932,0.179644 c -0.14812,0.0988 -0.40344,0.311269 -0.56736,0.472144 l -0.29805,0.2925 -8.63052,-5.395485 z"
       id="path5091"
       inkscape:connector-curvature="0"
       transform="translate(259.61938,341.90517)" />
    <path
       style="fill:#ffd42a;fill-opacity:1;stroke:#000000;stroke-width:0.00398597;stroke-miterlimit:4;stroke-dasharray:none;stroke-dashoffset:0;stroke-opacity:1"
       d="m 185.80768,63.690561 c -6.03697,-7.15277 -11.00166,-13.040711 -11.03264,-13.084312 -0.0468,-0.06592 -0.0431,-0.09118 0.0223,-0.149918 0.0731,-0.06566 0.68839,0.310567 8.71705,5.330173 4.75112,2.970448 8.66152,5.414643 8.68979,5.431545 0.0368,0.02199 0.0153,0.138644 -0.0756,0.410195 -0.62141,1.856866 0.10496,3.824895 1.77872,4.819255 0.34465,0.204753 0.91519,0.425068 1.21862,0.470569 0.11222,0.01683 0.22874,0.04586 0.25893,0.06452 0.0452,0.02796 2.21016,9.285268 2.17879,9.316633 -0.005,0.0054 -0.1831,0.09685 -0.39479,0.203135 l -0.3849,0.193242 -10.9763,-13.005037 z"
       id="path5097"
       inkscape:connector-curvature="0"
       transform="translate(259.61938,341.90517)" />
  </g>
</svg>
